<svg width="16" xmlns="http://www.w3.org/2000/svg" height="16" id="screenshot-602a7fec-376d-80b8-8008-29528189863d" viewBox="0 0 16 16" xmlns:xlink="http://www.w3.org/1999/xlink" fill="none" version="1.1"><g id="shape-602a7fec-376d-80b8-8008-29528189863d" width="24" height="24" rx="0" ry="0" style="fill: rgb(0, 0, 0);"><g id="shape-602a7fec-376d-80b8-8008-29528189863e" style="display: none;"><g class="fills" id="fills-602a7fec-376d-80b8-8008-29528189863e"><rect width="16" height="16" x="0" transform="matrix(1.000000, 0.000000, 0.000000, 1.000000, 0.000000, 0.000000)" style="fill: rgb(255, 255, 255); fill-opacity: 1;" ry="0" fill="none" rx="0" y="0"/></g><g fill="none" id="strokes-5ff6cff2-ece4-8072-8008-295283a86951-602a7fec-376d-80b8-8008-29528189863e" class="strokes"><g class="inner-stroke-shape" transform="matrix(1.000000, 0.000000, 0.000000, 1.000000, 0.000000, 0.000000)"><defs><clipPath id="inner-stroke-render-2-602a7fec-376d-80b8-8008-29528189863e-0"><use href="#stroke-shape-render-2-602a7fec-376d-80b8-8008-29528189863e-0"/></clipPath><rect rx="0" ry="0" x="0" y="0" width="16" height="16" id="stroke-shape-render-2-602a7fec-376d-80b8-8008-29528189863e-0" style="fill: none; stroke-width: 2; stroke: rgb(132, 132, 132); stroke-opacity: 1;"/></defs><use href="#stroke-shape-render-2-602a7fec-376d-80b8-8008-29528189863e-0" clip-path="url('#inner-stroke-render-2-602a7fec-376d-80b8-8008-29528189863e-0')"/></g></g></g><g id="shape-602a7fec-376d-80b8-8008-29528189863f"><g class="fills" id="fills-602a7fec-376d-80b8-8008-29528189863f"><path d="M8.000025749206543,11.3333101272583C7.655421257019043,11.3316011428833,7.329737663269043,11.1749849319458,7.113306999206543,10.9066743850708L4.306666374206543,7.506650447845459C3.972071647644043,7.089047908782959,3.904810905456543,6.517270565032959,4.133326530456543,6.033383846282959C4.318873405456543,5.612363338470459,4.733302116394043,5.338681697845459,5.193385124206543,5.333310604095459L10.806666374206543,5.333310604095459C11.266749382019043,5.338681697845459,11.681178092956543,5.612363338470459,11.866724967956543,6.033383846282959C12.095240592956543,6.517270565032959,12.027979850769043,7.089047908782959,11.693385124206543,7.506650447845459L8.886744499206543,10.9066743850708C8.670313835144043,11.1749849319458,8.344630241394043,11.3316011428833,8.000025749206543,11.3333101272583" style="fill: rgb(255, 255, 255); fill-opacity: 1;"/></g><g id="strokes-5ff6cff2-ece4-8072-8008-295283a94173-602a7fec-376d-80b8-8008-29528189863f" class="strokes"><g class="inner-stroke-shape"><defs><clipPath id="inner-stroke-render-3-602a7fec-376d-80b8-8008-29528189863f-0"><use href="#stroke-shape-render-3-602a7fec-376d-80b8-8008-29528189863f-0"/></clipPath><path d="M8.000025749206543,11.3333101272583C7.655421257019043,11.3316011428833,7.329737663269043,11.1749849319458,7.113306999206543,10.9066743850708L4.306666374206543,7.506650447845459C3.972071647644043,7.089047908782959,3.904810905456543,6.517270565032959,4.133326530456543,6.033383846282959C4.318873405456543,5.612363338470459,4.733302116394043,5.338681697845459,5.193385124206543,5.333310604095459L10.806666374206543,5.333310604095459C11.266749382019043,5.338681697845459,11.681178092956543,5.612363338470459,11.866724967956543,6.033383846282959C12.095240592956543,6.517270565032959,12.027979850769043,7.089047908782959,11.693385124206543,7.506650447845459L8.886744499206543,10.9066743850708C8.670313835144043,11.1749849319458,8.344630241394043,11.3316011428833,8.000025749206543,11.3333101272583" id="stroke-shape-render-3-602a7fec-376d-80b8-8008-29528189863f-0" style="fill: none; stroke-width: 2; stroke: rgb(132, 132, 132); stroke-opacity: 1;"/></defs><use href="#stroke-shape-render-3-602a7fec-376d-80b8-8008-29528189863f-0" clip-path="url('#inner-stroke-render-3-602a7fec-376d-80b8-8008-29528189863f-0')"/></g></g></g></g></svg>