<svg width="12" xmlns="http://www.w3.org/2000/svg" height="12" id="screenshot-602a7fec-376d-80b8-8008-2952dceb635b" viewBox="0 0 12 12" xmlns:xlink="http://www.w3.org/1999/xlink" fill="none" version="1.1"><g id="shape-602a7fec-376d-80b8-8008-2952dceb635b" width="16" height="16" rx="0" ry="0" style="fill: rgb(0, 0, 0);"><g id="shape-602a7fec-376d-80b8-8008-2952dceb635c" style="display: none;"><g class="fills" id="fills-602a7fec-376d-80b8-8008-2952dceb635c"><rect width="12" height="12" x="0" transform="matrix(1.000000, 0.000000, 0.000000, 1.000000, 0.000000, 0.000000)" style="fill: rgb(165, 165, 165); fill-opacity: 1;" ry="0" fill="none" rx="0" y="0"/></g></g><g id="shape-602a7fec-376d-80b8-8008-2952dceb635d"><g class="fills" id="fills-602a7fec-376d-80b8-8008-2952dceb635d"><path d="M8.137434005737305,8.800158500671387C7.372602939605713,9.416247367858887,6.419600009918213,9.751452445983887,5.437483310699463,9.749987602233887C3.055830240249634,9.749987602233887,1.1249831914901733,7.819079875946045,1.1249831914901733,5.437488079071045C1.1249831914901733,3.055896282196045,3.055830240249634,1.1249879598617554,5.437483310699463,1.1249879598617554C7.819136142730713,1.1249879598617554,9.749982833862305,3.055896282196045,9.749982833862305,5.437488079071045C9.749982833862305,6.459338665008545,9.394514083862305,7.398425579071045,8.800519943237305,8.137560844421387L11.113142013549805,10.449694633483887C11.296186447143555,10.632800102233887,11.296186447143555,10.929675102233887,11.113142013549805,11.112780570983887C10.930036544799805,11.295763969421387,10.633161544799805,11.295763969421387,10.450056076049805,11.112780570983887ZM8.812482833862305,5.437488079071045C8.812482833862305,3.573474407196045,7.301435947418213,2.062488079071045,5.437483310699463,2.062488079071045C3.573530435562134,2.062488079071045,2.062483072280884,3.573474407196045,2.062483072280884,5.437488079071045C2.062483072280884,7.301501750946045,3.573530435562134,8.812487602233887,5.437483310699463,8.812487602233887C7.301435947418213,8.812487602233887,8.812482833862305,7.301501750946045,8.812482833862305,5.437488079071045" style="fill: rgb(165, 165, 165); fill-opacity: 1;"/></g></g></g></svg>